<?xml version="1.0" standalone="no"?>
<!DOCTYPE svg PUBLIC "-//W3C//DTD SVG 20010904//EN"
 "http://www.w3.org/TR/2001/REC-SVG-20010904/DTD/svg10.dtd">
<svg version="1.0" xmlns="http://www.w3.org/2000/svg"
 width="295.000000pt" height="131.000000pt" viewBox="0 0 295.000000 131.000000"
 preserveAspectRatio="xMidYMid meet">

<g transform="translate(0.000000,131.000000) scale(0.100000,-0.100000)"
fill="#000000" stroke="none">
<path d="M708 1195 c-3 -3 -97 -9 -209 -13 l-204 -7 -9 -27 c-14 -39 2 -78 42
-105 18 -12 38 -24 45 -26 8 -3 0 -39 -28 -122 l-40 -117 -50 -17 c-60 -19
-67 -40 -27 -80 l29 -30 -69 -171 -70 -171 26 -38 c28 -40 90 -81 124 -81 16
0 22 11 32 62 12 63 84 291 114 359 l15 36 96 13 c52 7 115 10 139 8 54 -6 66
4 66 55 0 30 -7 46 -30 69 -30 29 -33 30 -110 26 -50 -2 -80 1 -80 7 0 18 97
212 110 220 8 5 79 9 159 11 97 2 147 7 149 14 7 20 -29 99 -51 115 -21 15
-156 22 -169 10z m163 -32 l24 -26 -30 21 c-30 21 -32 21 -180 7 -163 -16
-361 -20 -368 -7 -3 4 68 8 157 9 88 2 193 7 231 12 124 15 139 14 166 -16z
m-181 -380 c13 -14 13 -14 -9 -3 -17 9 -53 11 -113 8 -97 -6 -110 3 -20 13 72
8 123 2 142 -18z m-372 -28 c-10 -10 -98 -33 -98 -25 0 4 17 12 38 18 42 11
68 14 60 7z"/>
<path d="M950 1045 c-10 -12 -37 -15 -120 -15 -59 0 -129 -3 -155 -7 l-48 -6
-38 -81 c-33 -70 -36 -82 -21 -85 9 -2 21 5 27 14 38 66 44 69 171 71 l118 3
28 33 c28 33 62 88 54 88 -2 0 -9 -7 -16 -15z"/>
<path d="M280 1036 c0 -10 44 -86 51 -86 6 0 22 43 16 45 -1 0 -17 10 -34 23
-18 12 -33 21 -33 18z"/>
<path d="M1980 657 l0 -194 33 1 32 1 5 90 c7 102 13 121 42 128 51 14 68 -20
68 -137 l0 -83 33 1 32 1 3 112 c2 104 1 113 -21 139 -30 35 -103 40 -136 10
l-21 -19 0 71 0 72 -35 0 -35 0 0 -193z"/>
<path d="M1140 645 l0 -187 33 4 32 3 5 70 5 70 63 3 c61 3 62 3 62 32 l0 30
-65 0 -65 0 0 45 0 44 68 3 67 3 0 30 0 30 -102 3 -103 3 0 -186z"/>
<path d="M1460 738 c-44 -12 -43 -11 -29 -41 10 -22 15 -24 39 -15 44 15 84 7
88 -18 3 -19 -3 -22 -49 -28 -64 -9 -105 -29 -114 -57 -11 -33 4 -87 28 -104
31 -21 89 -19 120 5 25 20 26 20 36 2 6 -11 19 -18 33 -17 22 2 23 5 26 103 3
124 -9 156 -66 171 -44 13 -65 13 -112 -1z m100 -172 c0 -31 -22 -48 -57 -44
-57 6 -36 68 23 68 29 0 34 -3 34 -24z"/>
<path d="M1781 737 c-46 -16 -73 -55 -79 -115 -9 -102 37 -162 126 -162 60 0
82 14 82 51 0 26 -3 30 -17 24 -74 -32 -113 -8 -113 67 0 76 33 99 102 73 9
-4 19 4 26 20 16 35 17 33 -25 44 -47 13 -59 13 -102 -2z"/>
<path d="M2435 740 c-12 -4 -27 -15 -34 -24 -18 -22 -31 -20 -31 4 0 16 -7 20
-30 20 l-31 0 3 -137 3 -138 35 0 35 0 3 75 c4 105 7 116 43 129 17 6 35 8 40
5 11 -6 23 41 15 61 -6 17 -20 18 -51 5z"/>
<path d="M2519 693 c10 -26 35 -89 56 -140 30 -74 34 -95 26 -112 -14 -25 -48
-44 -67 -37 -10 4 -14 -3 -14 -25 0 -18 6 -32 16 -36 26 -10 93 16 111 43 9
14 44 100 79 190 l63 165 -42 -3 -41 -3 -30 -91 -30 -92 -31 92 -32 91 -41 3
-42 3 19 -48z"/>
<path d="M761 684 c0 -11 3 -14 6 -6 3 7 2 16 -1 19 -3 4 -6 -2 -5 -13z"/>
<path d="M736 648 c-11 -6 -51 -10 -90 -9 -77 1 -184 -13 -198 -27 -18 -18
-70 -170 -103 -301 -19 -74 -40 -138 -47 -143 -22 -14 -52 -9 -95 17 -24 13
-43 20 -43 15 0 -19 107 -119 134 -126 48 -12 59 4 83 122 29 143 78 296 101
317 23 21 125 41 170 33 18 -3 40 -2 48 1 14 5 69 101 62 108 -2 2 -12 -1 -22
-7z"/>
</g>
</svg>
